<svg width="70" height="70" viewBox="0 0 70 70" fill="none" xmlns="http://www.w3.org/2000/svg">
<path d="M8.20314 10.1447H37.0541C41.1425 10.1447 44.4577 14.43 44.4577 19.715V28.7986L46.2044 29.3115L47.4852 38.3754L46.6003 47.5247L37.4697 47.4689C37.3264 47.482 37.1974 47.5247 37.0552 47.5247H8.20424C4.11251 47.5247 0.798454 43.2415 0.798454 37.9543V19.7161C0.796265 14.4311 4.11251 10.1447 8.20314 10.1447Z" fill="#009398"/>
<path d="M8.20314 10.1632H37.0541C41.1425 10.1632 44.4577 14.4474 44.4577 19.7335V28.8182L46.2044 29.3312L47.4852 38.394L46.8705 44.7618L46.2044 40.062L44.4577 39.549V30.4654C44.4577 25.1804 41.1436 20.8951 37.0541 20.8951H8.20314C4.11142 20.8951 0.797356 25.1815 0.797356 30.4654V19.7324C0.797356 14.4474 4.11142 10.1632 8.20314 10.1632Z" fill="#11B0B6"/>
<path d="M48.382 20.9018H54.2577C59.1664 21.2223 68.9292 23.4722 68.7422 36.2909V41.0093C68.7422 45.0464 66.9856 48.3178 64.8233 48.3178H48.3842C46.2197 48.3178 44.462 45.0475 44.462 41.0093V28.2081C44.462 24.1722 46.2186 20.8986 48.3842 20.8986" fill="#E3E4E3"/>
<path d="M46.8125 16.3921H50.3344C53.2711 16.5605 59.1172 17.7287 59.0056 24.3863V26.833C59.0056 28.9308 57.9502 30.6294 56.6584 30.6294H46.8147C45.5208 30.6294 44.4675 28.9308 44.4675 26.833V20.1907C44.4653 18.0929 45.5197 16.3921 46.8136 16.3921" fill="#E3E4E3"/>
<path d="M55.8753 24.4663H58.8218C61.2817 24.6501 66.1773 25.9374 66.0822 33.271V35.9704C66.0822 38.2815 65.2039 40.1551 64.1178 40.1551H55.8753C54.7892 40.1551 53.9065 38.2815 53.9065 35.9704V28.6477C53.9065 26.3388 54.7892 24.4674 55.8753 24.4674" fill="#A2C2CA"/>
<path d="M60.1125 33.6364C60.2558 30.5454 60.0447 27.367 59.1336 24.4554C61.6087 24.6523 66.442 25.9681 66.3491 33.2601V35.9595C66.3491 38.2706 65.4686 40.1442 64.3825 40.1442H59.0264C59.6586 38.1875 60.002 36.0229 60.1125 33.6408" fill="#83AFB7"/>
<path d="M46.714 50.248C46.7158 52.26 47.5163 54.189 48.9396 55.6111C50.3629 57.0332 52.2926 57.8321 54.3047 57.832C56.3156 57.8303 58.2436 57.0307 59.6655 55.6088C61.0874 54.1869 61.887 52.2589 61.8887 50.248C61.8882 48.2366 61.089 46.3076 59.6669 44.8851C58.2448 43.4626 56.3161 42.6629 54.3047 42.6617C53.3081 42.6615 52.3213 42.8575 51.4005 43.2385C50.4798 43.6196 49.643 44.1783 48.9382 44.8828C48.2333 45.5872 47.6741 46.4236 47.2925 47.3442C46.9109 48.2647 46.7143 49.2515 46.714 50.248Z" fill="white"/>
<path d="M48.0593 50.2479C48.0608 51.9028 48.7192 53.4893 49.8899 54.6589C51.0605 55.8286 52.6476 56.4856 54.3025 56.4856C55.9562 56.4835 57.5416 55.8257 58.7109 54.6564C59.8803 53.487 60.5381 51.9016 60.5401 50.2479C60.5184 48.6072 59.8514 47.041 58.6834 45.8884C57.5155 44.7358 55.9406 44.0896 54.2997 44.0896C52.6589 44.0896 51.084 44.7358 49.916 45.8884C48.7481 47.041 48.0811 48.6072 48.0593 50.2479Z" fill="#243438"/>
<path d="M50.2578 50.1607C50.2578 51.2335 50.684 52.2624 51.4427 53.0211C52.2013 53.7797 53.2302 54.2059 54.3031 54.2059C55.3759 54.2059 56.4048 53.7797 57.1635 53.0211C57.9221 52.2624 58.3483 51.2335 58.3483 50.1607C58.3183 49.1077 57.879 48.108 57.1236 47.3739C56.3682 46.6397 55.3564 46.229 54.3031 46.229C53.2497 46.229 52.2379 46.6397 51.4825 47.3739C50.7272 48.108 50.2878 49.1077 50.2578 50.1607Z" fill="#969796"/>
<path d="M15.4919 51.2291C15.4925 52.981 16.1887 54.661 17.4275 55.8997C18.6663 57.1385 20.3462 57.8347 22.0982 57.8353C23.8499 57.8341 25.5295 57.1378 26.7682 55.8991C28.0069 54.6604 28.7032 52.9808 28.7044 51.2291C28.7038 49.4771 28.0076 47.7972 26.7688 46.5584C25.5301 45.3196 23.8501 44.6234 22.0982 44.6228C21.2306 44.6228 20.3716 44.7937 19.5701 45.1257C18.7685 45.4577 18.0403 45.9443 17.4268 46.5577C16.8134 47.1712 16.3268 47.8994 15.9948 48.701C15.6628 49.5025 15.4919 50.3615 15.4919 51.2291Z" fill="white"/>
<path d="M16.6623 51.2291C16.6623 52.6693 17.2344 54.0506 18.2528 55.069C19.2712 56.0874 20.6525 56.6595 22.0927 56.6595C23.533 56.6595 24.9142 56.0874 25.9326 55.069C26.9511 54.0506 27.5232 52.6693 27.5232 51.2291C27.5238 50.5162 27.3839 49.8102 27.1115 49.1515C26.8392 48.4927 26.4397 47.8941 25.9359 47.3898C25.4321 46.8855 24.8338 46.4854 24.1753 46.2124C23.5169 45.9393 22.811 45.7987 22.0982 45.7986C21.3845 45.7977 20.6777 45.9376 20.0182 46.2101C19.3586 46.4826 18.7593 46.8825 18.2544 47.3869C17.7495 47.8912 17.3491 48.4902 17.0759 49.1495C16.8027 49.8087 16.6621 50.5154 16.6623 51.2291Z" fill="#243438"/>
<path d="M18.5718 51.1556C18.5718 51.6183 18.663 52.0765 18.8401 52.504C19.0172 52.9315 19.2768 53.3199 19.6041 53.6471C19.9313 53.9742 20.3198 54.2337 20.7474 54.4107C21.1749 54.5876 21.6332 54.6787 22.0959 54.6785C22.792 54.6779 23.4723 54.4709 24.0508 54.0837C24.6293 53.6966 25.0801 53.1466 25.3461 52.5033C25.6122 51.8601 25.6816 51.1524 25.5455 50.4697C25.4095 49.787 25.0741 49.1599 24.5818 48.6678C24.0895 48.1756 23.4624 47.8405 22.7796 47.7046C22.0969 47.5688 21.3892 47.6384 20.746 47.9047C20.1029 48.1709 19.553 48.6218 19.166 49.2005C18.7791 49.7791 18.5723 50.4594 18.5718 51.1556Z" fill="#969796"/>
<path d="M1.9797 51.1561C1.98042 52.0229 2.15187 52.8811 2.48425 53.6817C2.81664 54.4822 3.30345 55.2095 3.91689 55.8219C4.53034 56.4344 5.25841 56.92 6.05953 57.251C6.86065 57.5821 7.71913 57.7521 8.58595 57.7514C9.45278 57.7507 10.311 57.5792 11.1116 57.2468C11.9121 56.9144 12.6394 56.4276 13.2518 55.8142C13.8642 55.2007 14.3499 54.4727 14.6809 53.6715C15.012 52.8704 15.182 52.012 15.1813 51.1451C15.1798 49.3945 14.483 47.7161 13.2441 46.4793C12.0052 45.2424 10.3257 44.5484 8.57502 44.5498C6.82438 44.5513 5.14602 45.2481 3.90916 46.487C2.6723 47.7259 1.97825 49.4054 1.9797 51.1561Z" fill="white"/>
<path d="M3.14996 51.1556C3.1517 52.5962 3.72514 53.9773 4.74436 54.9955C5.76357 56.0137 7.14523 56.5857 8.58589 56.586C10.0261 56.586 11.4074 56.0139 12.4258 54.9955C13.4442 53.9771 14.0164 52.5958 14.0164 51.1556C14.0164 49.7153 13.4442 48.3341 12.4258 47.3156C11.4074 46.2972 10.0261 45.7251 8.58589 45.7251C7.87237 45.7247 7.16576 45.8648 6.5064 46.1375C5.84705 46.4102 5.24786 46.8101 4.74307 47.3144C4.23829 47.8186 3.83778 48.4174 3.56444 49.0765C3.29108 49.7356 3.15024 50.442 3.14996 51.1556Z" fill="#243438"/>
<path d="M5.06403 51.0816C5.05579 51.5493 5.14078 52.0139 5.31404 52.4484C5.48731 52.8828 5.74537 53.2784 6.07317 53.612C6.40098 53.9456 6.79195 54.2106 7.22328 54.3915C7.6546 54.5724 8.11764 54.6656 8.58536 54.6656C9.05308 54.6656 9.51612 54.5724 9.94745 54.3915C10.3788 54.2106 10.7697 53.9456 11.0976 53.612C11.4254 53.2784 11.6834 52.8828 11.8567 52.4484C12.0299 52.0139 12.1149 51.5493 12.1067 51.0816C12.0904 50.1585 11.7123 49.2786 11.0537 48.6315C10.3951 47.9844 9.50867 47.6218 8.58536 47.6218C7.66205 47.6218 6.77567 47.9844 6.11706 48.6315C5.45845 49.2786 5.08031 50.1585 5.06403 51.0816Z" fill="#969796"/>
<path d="M66.3545 44.0454C66.3545 45.8851 67.0983 47.378 68.0181 47.378C68.9369 47.378 69.6817 45.8851 69.6817 44.0454V43.971C69.6817 42.1335 68.9369 40.6449 68.0181 40.6449C67.0983 40.6449 66.3545 42.1335 66.3545 43.971V44.0454Z" fill="#F1F1F1"/>
<path d="M0.318268 40.1909C0.318268 42.0305 1.06202 43.5191 1.98295 43.5191C2.90061 43.5191 3.64655 42.0305 3.64655 40.1909V40.1187C3.64655 38.2768 2.90061 36.7882 1.98295 36.7882C1.06092 36.7882 0.318268 38.2768 0.318268 40.1187V40.1909Z" fill="#046D71"/>
</svg>
